<?xml version="1.0" encoding="UTF-8"?>
<svg id="Calque_1" data-name="Calque 1" xmlns="http://www.w3.org/2000/svg" viewBox="0 0 514.72 224.99">
  <defs>
    <style>
      .cls-1 {
        fill: #000;
        fill-rule: evenodd;
        stroke: #000;
      }
    </style>
  </defs>
  <path class="cls-1" d="M200.27,220.05h2.54c8.43-11.93,11.11-27.21,17.16-41.44,5.08-11.94,11.27-24.82,15.25-37,1.36-4.15-1.47-8.61-1.91-11.84-.42-3.13,1.88-9.02,1.91-13.81h-1.91v2.96h-1.91c-.05-1.64-.31-2.23-.64-3.45-.93-.39-2.37-.94-3.18-1.48,3.07-2.48,1.91-9.57,1.91-14.31,0-14.17-2.41-25.26-9.53-33.55,10.79-1.13,19.93-7.48,23.51-14.31,1.2-2.29.07-8.03,2.54-9.37.86.62,1.12.67,2.54.99v-2.96c-2.42-1.82-3.48-4.43-5.72-6.41-7.75-6.86-17.74-13.88-27.33-19.24-5.79-3.24-19.32-9.08-21.61-14.31h1.91c4.56,4.4,15.36,7.95,21.61,11.35,7.86,4.27,15.2,9.31,22.88,13.81,1.69,1.48,3.39,2.96,5.08,4.44,4.1,2.41,14.58,7.9,15.25,12.33-3.24,3.35-3.59,8.16-6.35,11.84-3.5,4.65-9.11,10.22-11.44,15.29-2.22,4.83-1,9.5-2.54,14.8-.7,2.4-1.66,8.2-.64,11.35.7,2.15,2.44,6.11,4.45,7.4,3.86,2.48,8.67.24,8.9,5.92-2.5,2.96-2.19,7.92-3.81,11.35-2.77,5.84-7.55,7.28-7.63,15.29,1.08,1.27.13,3.51.64,5.43,1.89,7.22-1.33,11.95-4.45,16.77-7.45,11.56-12.85,25.4-18.43,38.48-3.36,7.88-4.32,16.22-9.53,22.7-2.12,1.81-4.24,3.62-6.36,5.43h-1.27c-.61-.87-.8-.83-1.27-1.97-.56-.64-.57-1.22-.64-2.47ZM461.47,95.23v1.48c4.45.49,8.9.99,13.35,1.48v1.48c-11.97-.06-23.83,1.84-28.6,7.4-2.6,3.03-2.43,7.6-5.08,10.36-4.5,4.69-11.77,8.32-13.98,14.8h1.27c3.04-2.05,23.04-1.05,29.23-.99v-1.48h-7.63v-.99c1.46-.36,18.23-7.24,19.07-7.89,1.06-.83.6-2.27,1.27-3.45,1.53-2.68,4.12-5.91,6.36-8.39,2.05-2.27,7.02-4.3,8.26-6.91,2.48-5.22,1.34-15.48,1.27-22.2h3.81c1.05,2.4.68,6.67.64,9.87,1.94,2.35,1.33,7.78,1.27,11.35-.05,3.25-.45,7.92-1.27,10.85-1.43,5.12.54,11.75-.64,16.28-9.32,2.49-17.49,5.31-24.79,9.37-3.37,1.88-9,7.63-12.08,8.88-2.54.33-5.08.66-7.63.99-5.13,1.32-11.23,3.18-15.89,4.93-2.73,1.03-19.09,5.23-19.7,6.41,0,0,1.69,1.56,1.91,1.97-11.26,5.43-12.58,18.49-15.89,30.1-1.63,5.74.19,22.5-4.45,24.67v-.49c-4.49-3.93-3.26-20.84-3.18-28.62.05-5.41,3.1-11.18,1.27-17.27-1.85-6.15-5.78-10.25-3.81-15.29v-7.4c0-8.65.02-15.29,4.45-20.23,4.27-4.76,11.99-8.8,18.43-11.84,4.02-1.9,10.92-2.35,12.71-5.92.48-.53.38-.47.64-1.48h-1.27c-.71,1.42-.11.91-1.91,1.48v-2.47c1.48-1.81,2.97-3.62,4.45-5.43,1.69-.49,3.39-.99,5.08-1.48-3.69-1.86-8.39-5.53-10.8-8.39h18.43c.95-9.04,12.99-9.12,13.35-16.78h2.54v4.44h1.27v-6.41c-7.74-2.79-15.79-5.4-25.42-7.4-3.47-.72-9.1.09-10.8-1.97,1.47-.87,2.33-2.12,3.18-3.45h-1.27c-2.65,2.05-6.52,3.17-9.53,4.93-7.82,4.58-8.82,11.35-11.44,20.23-.44,1.49-2.29,3.82-1.91,5.43,1.08,4.53,4.69,8.66,5.08,14.31h-1.27v-.49c-6.91-3.77-12.57-23.07-13.98-31.58,7.72-4.27,13.12-20.58,16.52-28.62,1.26-2.99.94-6.67,3.18-8.88,2.21-1.86,5.46-4.12,9.53-4.44,5.49,6.41,14.81,9.91,21.61,15.29h5.08v-1.48h-5.72v-1.48h1.27c2.33-1.25,11.98-2.74,16.52-1.48,4.34,1.2,4.66,4.17,11.44,4.44,2.75-1.51,6.72-1.54,9.53-2.96,5.66-2.86,13.11-7.68,17.16-11.84,4.41-4.54,16.32-17.52,22.24-19.74v1.48c-3.25,2.97-4.21,7.57-6.36,11.35-4.68,8.23-10.73,16.67-15.25,25.16-3.77,7.07-3.69,15.51-7.63,22.7-2.16,3.94-6.8,5.54-9.53,8.88-2.65,3.24-7.99,13.01-12.08,14.31-.68.37-.6.3-1.91.49ZM147.52,46.88h1.91v-4.44h1.27c4.98,3.44,24.34,8.48,31.78,10.36,3.66.92,8.54.42,11.44,1.97-.84.67-1.35,1.57-1.91,2.47h1.91c6.18-7.37,5.54-9.62,3.81-19.74h3.81v.99c2.43,2.48,7.52,20.84,5.72,26.15-.93,2.73-3.31,6.33-3.81,9.37-.41,2.46,3.74,7.35,3.81,12.33-6.7,2.51-13.32,6.49-20.34,8.88-6.98,2.38-14.56,3.67-19.7,7.4v.99h.64c5.09-2.94,15.23,3.64,24.79,1.97,6.1-1.06,9.27-4.15,14.62-4.93-.17,12.3,3.44,21.69,3.81,32.56-6.18,3.36-18.67,19.39-21.61,25.66-1.05,2.24.13,4.63-1.27,6.91-1.41,2.3-9.79,6.69-12.71,8.39-4.49,2.62-6.75,6.26-14.62,6.41v-1.48c6.95-1.47,17.44-14.03,19.7-19.24v-12.83c1.77-3.21,6.22-5.14,7.63-9.87,1.48-4.96-9.2-11.85-5.72-16.77.47-.66,1.33-.22,1.91-1.48-2.02-.74-4.25-1.76-5.72-2.96-8.05.49-16.1.99-24.15,1.48-1.51-.34-2.74-1.22-5.08-1.48v.99c3.23,1.6,1.41,6.72,0,9.37-2.73,5.13-7.35,9.6-11.44,13.81-2.43,2.5-6.67,3.69-8.26,6.91,1.52,1.87.84,4.63,1.91,6.91.74,1.58,3.16,3.51,3.81,4.93,2.22,4.8-1.93,10.59-1.91,14.31.01,1.97,3.12,5.06,3.81,7.4h-2.54c-.65-.4-.17-.18-1.27-.49-2.57-4.16-5.63-9.05-7.63-13.81-.64-2.3-1.27-4.61-1.91-6.91-3.47-4.42-10.07-8.42-11.44-14.31,2.59-2.1,2.03-7.19,1.91-11.35,1.69-.16,3.39-.33,5.08-.49,6.85-6.77,13.43-9.46,10.17-20.23h1.27c.86.62,1.12.67,2.54.99v-1.48c-2.83-2.15-16.98-17.17-17.16-20.23,1.17-1.52.01-4.24.64-6.41,1.08-3.76,2.03-7.45,3.81-10.36h1.27v.99c-1.89,2.07-1.95,6.34-1.27,8.88,4.72,2.38,8.68,4.77,16.52,4.93v-1.48h-3.81c.42-15.22-5.86-25.18-9.53-36.51,6.59-1.9,17.74-14.9,21.61-19.74,3.1-3.88,4.16-7.77,11.44-8.39v.49c-6.71,4.09-9.55,12.9-9.53,22.2ZM324.83,45.4v-1.48h-5.72v-1.48h1.27c2.45-1.24,11.88-2.73,16.52-1.48,4.16,1.12,5.61,5.81,13.35,4.44,9.19-1.63,17.63-6.41,25.42-7.4v.99c-2.91,3.83-1.56,13.34-3.18,18.25-1.91,5.8-2.88,13.85-6.99,18.26-1.48.66-2.97,1.32-4.45,1.97-2.07,1.89-4.11,4.93-5.72,6.91-2.42,2.97-4.62,9-8.9,10.36-.68.37-.6.3-1.91.49v1.48c4.45.49,8.9.99,13.35,1.48v1.48c-11.97-.06-23.83,1.84-28.6,7.4-2.6,3.03-2.43,7.6-5.08,10.36-4.5,4.69-11.77,8.32-13.98,14.8h1.27c3.04-2.05,23.04-1.05,29.23-.99v-1.48h-7.63v-.99c1.46-.36,18.23-7.24,19.07-7.89,1.06-.83.6-2.27,1.27-3.45,1.53-2.68,4.12-5.91,6.36-8.39,2.05-2.27,7.02-4.3,8.26-6.91,2.48-5.22,1.34-15.48,1.27-22.2h3.81c1.05,2.4.68,6.67.64,9.87,1.94,2.35,1.33,7.78,1.27,11.35-.05,3.25-.45,7.92-1.27,10.85-1.43,5.12.54,11.75-.64,16.28-9.32,2.52-17.48,5.3-24.79,9.37-3.35,1.87-9.02,7.65-12.08,8.88-2.54.33-5.08.66-7.63.99-3.99,1.02-8.97,2.72-12.71,3.95-5.44,1.79-20.88,5.34-21.61,9.87,1.21.48,2.31.78,1.27,1.48-3.9,3.28-8.97,5.99-12.08,9.87-1.27,2.63-2.54,5.26-3.81,7.89v-.49c-5.97-4.82-5.28-14.01-8.9-20.72-.94-1.75-2.94-3.03-3.81-4.93,5.07-4.27.18-18.05,3.18-23.68,3.82-7.2,13.42-12.41,21.61-16.28,4.02-1.9,10.93-2.35,12.71-5.92.48-.53.38-.47.64-1.48h-1.27c-.71,1.42-.11.91-1.91,1.48v-2.47c1.48-1.81,2.97-3.62,4.45-5.43,1.69-.49,3.39-.99,5.08-1.48-3.69-1.86-8.39-5.53-10.8-8.39h18.43c.95-9.04,12.99-9.12,13.35-16.78h2.54v4.44h1.27v-6.41c-7.74-2.79-15.79-5.4-25.42-7.4-3.47-.72-9.1.09-10.8-1.97,1.47-.87,2.33-2.12,3.18-3.45h-1.27c-2.65,2.05-6.52,3.17-9.53,4.93-7.82,4.58-8.82,11.35-11.44,20.23-.44,1.49-2.29,3.82-1.91,5.43,1.08,4.53,4.69,8.66,5.08,14.31h-1.27v-.49c-6.91-3.77-12.57-23.07-13.98-31.58,7.72-4.27,13.12-20.58,16.52-28.62,1.26-2.99.94-6.67,3.18-8.88,2.21-1.86,5.46-4.12,9.53-4.44,5.49,6.41,14.81,9.91,21.61,15.29h5.08ZM10.88,40.96c.17,7.06,16.61,19.31,20.97,26.15,10,.1,11.76,4.66,18.43,6.41,6.02,1.58,13.96-.91,17.16-1.97,12.24-4.04,21.15-11.11,25.42-21.22,1.28-3.03-.31-9.52,1.91-12.33,5.2,5.86,11.73,12,14.62,19.74,1.07,2.87-1.22,6.39-1.91,8.39-2.29,6.71-2.95,13.5-5.08,19.74-2.67,7.8-2.53,19.2-13.98,19.74v-.49c3.42-2.51,11.39-15.27,6.35-20.72-1.1-2.5-3.56-2.85-5.72-4.44-11.98-.03-27.19,5.53-33.05,10.36-1.33-.55-1.16-.71-3.18-.99v.99c-1.96,1.94-1.37,6.93-1.27,10.36,1.79.88,4.19,2.27,5.72,3.45,11.29.1,14.04-3.94,21.61-4.44v1.48c-10.1,4.65-17.25,12.52-25.42,18.75-.13,6.08-.72,13.26,3.18,16.28,2.41,1.87,7.26,1.44,10.17,2.96-8.51,4.72-12,12.23-16.52,20.23-6.26,11.07-15.26,21.69-22.24,32.56-3.61,5.62-6.8,18.55-16.52,18.75-1.73-1.96-3.07-1.92-3.18-5.43,1.53.18.98.31,2.54,0,4-6.93,6.22-14.74,10.17-22.2,7.08-13.37,14.4-27.01,19.07-42.43v-21.71c-5.65-2.89-10.99-8.39-13.98-13.32h3.18c4.46,3.45,6.65,2.22,12.07,1.48-.24-1.4-.97-1.7-1.27-2.47-2.34-5.93,2.33-13.97-.64-19.24-1.69-3-6.45-5.76-8.9-8.39-3.99-4.29-6.79-8.98-10.8-13.32-3.57-3.86-8.77-7.3-12.07-11.35-2.13-2.6-11.28-16.17-5.08-18.25,3.96-1.9,11.42,2.51,13.98,3.95,8.02,4.5,15.11,10.44,23.51,14.8,3.91,2.03,10.18,2.58,13.98,4.93h-5.72c-4.44-2.62-11.16-3.98-15.89-6.41-6.58-3.4-12.36-9.29-21.61-10.36ZM76.98,72.53c2.33-.33,4.66-.66,6.99-.99,1.69-1.72,4.74-2.71,6.36-4.44,2.86-3.07,3.86-7.01,5.72-10.85h-1.27c-4.57,3.72-16.95,10.61-17.79,16.28ZM153.24,67.6c.48,3.33,2.99,6.93,1.91,10.85-.35,1.26-2.79,5.96-1.91,7.4.33.54,1.38.33,1.91,1.48-1.87.64-1.85.3-1.27,1.48,3.56,2.7,11.38.54,15.89-.49,14.44-3.31,22.9-4.43,22.24-19.74-7.44-3.64-15.57-3.95-26.06-5.92-2.38-.45-6.88-1.76-9.53-.49-3.35.86-7.16,4.3-8.26,6.91h.64c1.22-.93,2.24-1.24,4.45-1.48ZM149.43,93.26v4.44h3.81v-4.44h-3.81ZM53.46,105.59v4.44c2.27-.01,3.44-.23,5.08-.49v-.99c.61-.7.62-1.62.64-2.96h-5.72ZM288.61,121.87c-1.41,1.69-8.8,9.04-7.63,10.36.68.37.6.3,1.91.49,2.59-3.21,6.06-6.34,6.99-10.85h-1.27ZM405.54,121.87c-1.41,1.69-8.8,9.04-7.63,10.36.68.37.6.3,1.91.49,2.59-3.21,6.06-6.34,6.99-10.85h-1.27Z"/>
</svg>